<?xml version="1.0" encoding="UTF-8"?>
<svg version="1.1" xmlns="http://www.w3.org/2000/svg" width="3000" height="3000">
<path d="M0 0 C990 0 1980 0 3000 0 C3000 990 3000 1980 3000 3000 C2010 3000 1020 3000 0 3000 C0 2010 0 1020 0 0 Z " fill="#FEFEFE" transform="translate(0,0)"/>
<path d="M0 0 C2.75252865 0.00108843 5.50495834 -0.0114287 8.25745755 -0.0233025 C14.23765166 -0.04191754 20.21703787 -0.02725815 26.19713783 0.00944138 C35.08908336 0.06385873 43.98052176 0.06645441 52.87260346 0.05856348 C67.83173915 0.04674984 82.79051653 0.07676691 97.74954796 0.13072014 C112.55835431 0.1839945 127.36701138 0.21861785 142.17591286 0.22839546 C143.55765957 0.22932345 143.55765957 0.22932345 144.96732035 0.23027018 C149.64555154 0.23331523 154.32378285 0.23602766 159.00201432 0.23861206 C192.12801607 0.25750999 225.25382296 0.31812992 258.37971497 0.40333557 C290.55874114 0.48601011 322.73771353 0.5496032 354.91682434 0.58790588 C356.94075519 0.59034166 358.96468604 0.592778 360.98861688 0.5952149 C377.43420853 0.61491418 393.87980164 0.63329725 410.32539514 0.65136125 C486.36085763 0.73582807 562.39581152 0.91646666 638.43122864 1.08229065 C638.43122864 202.71229065 638.43122864 404.34229065 638.43122864 612.08229065 C590.58122864 612.08229065 542.73122864 612.08229065 493.43122864 612.08229065 C493.43122864 472.49229065 493.43122864 332.90229065 493.43122864 189.08229065 C466.04122864 189.41229065 438.65122864 189.74229065 410.43122864 190.08229065 C406.14122864 196.02229065 401.85122864 201.96229065 397.43122864 208.08229065 C395.12492765 211.23321865 392.8165197 214.38120452 390.49372864 217.51979065 C389.31792289 219.11222048 388.14214239 220.70466895 386.96638489 222.2971344 C386.38260071 223.08716858 385.79881653 223.87720276 385.19734192 224.69117737 C382.27166761 228.65220227 379.35172558 232.61744782 376.43122864 236.58229065 C375.26458973 238.16564444 374.09792306 239.74897777 372.93122864 241.33229065 C372.35372864 242.11604065 371.77622864 242.89979065 371.18122864 243.70729065 C295.93122864 345.83229065 295.93122864 345.83229065 294.1809845 348.20753479 C293.01502058 349.7899725 291.8491676 351.37249196 290.6834259 352.95509338 C287.7569142 356.92780952 284.8284533 360.89906059 281.89607239 364.8674469 C276.15699221 372.63829156 270.44708936 380.42728899 264.80622864 388.26979065 C260.28011623 394.56006597 255.68139991 400.78872805 251.01838684 406.9780426 C242.4831785 418.31227464 234.09217704 429.75227263 225.80622864 441.26979065 C221.28004443 447.56001566 216.68140119 453.78872635 212.01838684 459.9780426 C203.4831785 471.31227464 195.09217704 482.75227263 186.80622864 494.26979065 C182.28004443 500.56001566 177.68140119 506.78872635 173.01838684 512.9780426 C163.92623288 525.05186418 155.01081119 537.25347841 146.18537903 549.52320862 C142.17630723 555.08360894 138.08042875 560.57317049 133.95027161 566.04396057 C129.65169029 571.75259506 125.47324668 577.54352994 121.30427551 583.34718323 C117.1015223 589.18539411 112.81552232 594.95632853 108.47615051 600.69361877 C108.01788879 601.30012268 107.55962708 601.90662659 107.08747864 602.5315094 C106.49676575 603.31014343 106.49676575 603.31014343 105.89411926 604.10450745 C104.42879132 605.97178785 104.42879132 605.97178785 103.56810886 607.77708966 C101.88196438 610.74943229 100.60852649 612.73542919 97.23792589 613.72849262 C94.40687474 613.96781311 91.64833488 613.9812733 88.80749512 613.92407227 C87.72516517 613.93005324 86.64283522 613.93603421 85.5277074 613.94219643 C81.89406023 613.95374438 78.26266602 613.91519882 74.62922668 613.87696838 C72.02753757 613.87499428 69.42584456 613.87610138 66.82415771 613.88006592 C61.21948531 613.88373544 55.61538358 613.86178446 50.01085472 613.82240105 C41.90776244 613.76549714 33.80494594 613.74727959 25.70167551 613.73848511 C12.55464814 613.72316684 -0.59207512 613.67658842 -13.73893738 613.61036682 C-26.50942972 613.54610794 -39.27983943 613.49656188 -52.05046082 613.46681213 C-52.83771403 613.46497307 -53.62496725 613.463134 -54.43607662 613.46123921 C-58.38551774 613.45210391 -62.33495944 613.44325796 -66.28440154 613.43455589 C-99.04607954 613.3619955 -131.80738476 613.2387096 -164.56877136 613.08229065 C-163.60868242 611.31180415 -162.64735518 609.54198911 -161.6855011 607.77246094 C-161.15029406 606.7868238 -160.61508701 605.80118666 -160.06366158 604.78568172 C-158.52434678 602.00195229 -156.89140782 599.32420976 -155.12345886 596.6799469 C-154.52758972 595.78034241 -153.93172058 594.88073792 -153.3177948 593.95387268 C-152.3901532 592.56337708 -152.3901532 592.56337708 -151.44377136 591.14479065 C-146.5676143 583.7585291 -141.8276551 576.32353745 -137.31877136 568.70729065 C-133.32725413 561.96859668 -129.20855015 555.34519075 -124.92106628 548.79127502 C-120.90991334 542.64677242 -117.01234359 536.43463633 -113.13127136 530.20729065 C-108.63065473 522.98596226 -104.12080296 515.77133461 -99.56877136 508.58229065 C-95.04276434 501.43176694 -90.54984147 494.26105549 -86.06877136 487.08229065 C-81.11194896 479.14136102 -76.13372385 471.21472236 -71.12736511 463.3049469 C-67.08454021 456.91189313 -63.07409156 450.49889452 -59.06877136 444.08229065 C-54.11194896 436.14136102 -49.13372385 428.21472236 -44.12736511 420.3049469 C-40.08454021 413.91189313 -36.07409156 407.49889452 -32.06877136 401.08229065 C-27.11194896 393.14136102 -22.13372385 385.21472236 -17.12736511 377.3049469 C-13.08454003 370.91189284 -9.07413575 364.49886719 -5.06877136 358.08229065 C1.87100664 346.96616075 8.8607217 335.88240582 15.8697052 324.80982971 C22.56942017 314.22346468 29.23007265 303.61352236 35.86408997 292.9858551 C40.17809645 286.07804327 44.51702361 279.18657664 48.87263489 272.3049469 C52.91545979 265.91189313 56.92590844 259.49889452 60.93122864 253.08229065 C65.88805104 245.14136102 70.86627615 237.21472236 75.87263489 229.3049469 C79.91545979 222.91189313 83.92590844 216.49889452 87.93122864 210.08229065 C92.88805104 202.14136102 97.86627615 194.21472236 102.87263489 186.3049469 C107.56320058 178.88759902 112.20995822 171.44308852 116.85603333 163.99781799 C121.19594989 157.0470486 125.55722776 150.11030272 129.96052551 143.19947815 C135.23080027 134.89384213 140.29932444 126.47995206 145.43122864 118.08229065 C43.46122864 117.75229065 -58.50877136 117.42229065 -163.56877136 117.08229065 C-160.53390665 113.28870976 -158.31556359 110.8714827 -154.63127136 107.95729065 C-153.66318542 107.18127502 -152.69509949 106.4052594 -151.69767761 105.60572815 C-151.18737 105.19677307 -150.67706238 104.78781799 -150.15129089 104.36647034 C-147.41945188 102.14964325 -144.74661568 99.86378538 -142.06877136 97.58229065 C-138.12270215 94.2273213 -134.15233464 90.91005936 -130.13127136 87.64479065 C-125.88484754 84.18954914 -121.71580842 80.65531231 -117.56877136 77.08229065 C-112.55557648 72.76300109 -107.48339816 68.53131946 -102.34611511 64.3596344 C-99.22480769 61.80025011 -96.14427106 59.19635274 -93.06877136 56.58229065 C-88.21923085 52.46121273 -83.31716172 48.41237582 -78.38127136 44.39479065 C-74.68783226 41.35796295 -71.0457865 38.2626811 -67.4025116 35.16603088 C-64.00923027 32.28683745 -60.58609351 29.45024828 -57.13127136 26.64479065 C-52.33231819 22.73996558 -47.62808282 18.73461887 -42.95378113 14.68214417 C-41.85017464 13.72882722 -40.73030267 12.79406577 -39.59619743 11.87724203 C-37.49312806 10.11095331 -37.49312806 10.11095331 -35.73036879 7.84031063 C-26.19004685 -2.35798231 -12.92880185 -0.1365208 0 0 Z " fill="#F69605" transform="translate(1064.5687713623047,1192.917709350586)"/>
<path d="M0 0 C0.8454538 0.00209473 1.69090759 0.00418945 2.5619812 0.00634766 C42.96184716 0.21151714 81.8154474 14.99911571 111.21875 42.95703125 C113.14082673 44.75483577 115.04789293 46.44248645 117.078125 48.10546875 C142.6357214 69.50821 158.02675745 105.44167788 163.9375 137.5 C164.11410156 138.37229248 164.29070313 139.24458496 164.47265625 140.14331055 C166.06322602 148.56551947 166.33455568 156.89386492 166.3125 165.4375 C166.31262085 166.15999939 166.3127417 166.88249878 166.31286621 167.62689209 C166.28360433 179.96077637 164.99461732 191.54017021 161.9375 203.5 C161.62041973 204.85891542 161.30523231 206.21827428 160.9921875 207.578125 C150.92207685 248.70479541 123.58209208 285.03704531 87.9375 307.5 C60.49962628 323.84298356 32.64369491 331.95252471 0.75 331.9375 C-0.49592926 331.93810425 -0.49592926 331.93810425 -1.76702881 331.9387207 C-12.04236906 331.90922966 -21.92731815 331.30238842 -32.0625 329.5 C-32.82312744 329.37020752 -33.58375488 329.24041504 -34.36743164 329.10668945 C-75.88193045 321.51702307 -113.14815676 294.68114721 -137.2890625 260.625 C-154.26296485 235.89670437 -165.46989483 204.60706733 -166.0625 174.5 C-166.08296387 173.65888672 -166.10342773 172.81777344 -166.12451172 171.95117188 C-166.37536818 160.28323664 -166.19534321 149.00516565 -164.0625 137.5 C-163.93891113 136.81550781 -163.81532227 136.13101562 -163.68798828 135.42578125 C-158.15014585 105.51471959 -144.29432458 78.10488069 -124.0625 55.5 C-123.33933594 54.65566406 -122.61617187 53.81132813 -121.87109375 52.94140625 C-117.60448541 47.99013669 -113.12088717 43.63337733 -108.0625 39.5 C-107.57539551 39.09523438 -107.08829102 38.69046875 -106.58642578 38.2734375 C-89.18794304 23.87033651 -69.15890196 12.35657749 -47.375 6.0625 C-46.60591309 5.83989502 -45.83682617 5.61729004 -45.04443359 5.38793945 C-30.17580886 1.40795405 -15.3507427 -0.0881626 0 0 Z " fill="#F69605" transform="translate(1934.0625,1473.5)"/>
</svg>
