<?xml version="1.0" encoding="UTF-8"?>
<svg version="1.1" xmlns="http://www.w3.org/2000/svg" width="704" height="120">
<path d="M0 0 C1.50778435 -0.00457147 3.01556662 -0.00987988 4.52334595 -0.0158844 C7.67190047 -0.02477853 10.82020086 -0.02243553 13.96875 -0.01245117 C17.97532579 -0.00097509 21.98101836 -0.0211702 25.98747826 -0.05036831 C29.09847455 -0.06884205 32.2092636 -0.06841568 35.32030106 -0.06273079 C36.79608014 -0.06257889 38.27187448 -0.0685131 39.74760056 -0.08102226 C54.68920284 -0.18984676 66.1882929 3.42419105 77.1640625 13.80859375 C86.19028414 23.33627215 88.88348411 33.40705452 88.84765625 46.30078125 C88.8528981 47.41615265 88.85813995 48.53152405 88.86354065 49.68069458 C88.86993442 52.02882051 88.86865836 54.37697859 88.86010742 56.72509766 C88.85160379 60.29127848 88.88038844 63.8558522 88.91210938 67.421875 C88.91372195 69.71484328 88.91314277 72.00781435 88.91015625 74.30078125 C88.92139023 75.35321014 88.93262421 76.40563904 88.94419861 77.48995972 C88.82480829 90.35937713 84.18689984 99.58766824 75.2421875 108.62890625 C66.89165834 116.43233178 58.10796196 120.63444597 46.49169922 120.73999023 C45.83856247 120.74831375 45.18542572 120.75663727 44.51249695 120.76521301 C42.37285222 120.78912352 40.2335138 120.79806364 38.09375 120.8046875 C36.58789998 120.81367162 35.08205078 120.82279374 33.57620239 120.83204651 C30.42415206 120.84849014 27.27220731 120.85622753 24.12011719 120.85913086 C20.11582134 120.86449516 16.1125436 120.90211274 12.10853386 120.94787502 C8.99747261 120.97788738 5.88664877 120.98485967 2.77545547 120.98585701 C1.30129483 120.99001535 -0.17286949 121.00226925 -1.64688492 121.02337456 C-15.5889874 121.20704155 -26.68928579 118.07263704 -37.2109375 108.8203125 C-47.2434587 98.73828873 -50.72380076 86.56030448 -50.7890625 72.70703125 C-50.79476257 71.76356842 -50.80046265 70.82010559 -50.80633545 69.84805298 C-50.81576588 67.85265212 -50.82231164 65.85723582 -50.82617188 63.86181641 C-50.83583742 60.83988501 -50.86686308 57.81864583 -50.8984375 54.796875 C-50.97825695 40.48718262 -49.956891 29.45395308 -41.5859375 17.43359375 C-41.14507812 16.79550781 -40.70421875 16.15742188 -40.25 15.5 C-30.05580822 2.27112107 -15.58286718 -0.04163932 0 0 Z M-27.2109375 28.49609375 C-31.87394322 35.70255714 -32.74011606 42.65815975 -32.75390625 51.140625 C-32.75723465 51.86545578 -32.76056305 52.59028656 -32.76399231 53.33708191 C-32.76903149 54.86411917 -32.77140157 56.39116733 -32.77124023 57.91821289 C-32.77342124 60.22886736 -32.79159365 62.53903948 -32.81054688 64.84960938 C-32.85686877 76.49174001 -32.43602539 86.18234601 -24.5859375 95.43359375 C-18.99688333 100.59561906 -12.98633735 102.66341267 -5.37207031 102.73999023 C-4.16351379 102.75597763 -2.95495728 102.77196503 -1.70977783 102.78843689 C-0.41594177 102.79379959 0.87789429 102.79916229 2.2109375 102.8046875 C3.56846202 102.81366912 4.92598562 102.82279121 6.2835083 102.83204651 C9.12457675 102.84849215 11.96552801 102.85622817 14.80664062 102.85913086 C18.42231809 102.86450258 22.03687194 102.90214914 25.65223312 102.94787502 C28.45607377 102.97782892 31.25965015 102.98485838 34.06363678 102.98585701 C36.03657464 102.99203298 38.0093968 103.02140775 39.9821167 103.05137634 C48.86095296 103.00718645 55.89785209 101.63071638 62.55535889 95.44358826 C69.22275712 88.44660364 70.88069668 81.87775233 70.8828125 72.4765625 C70.89042603 71.53355789 70.89803955 70.59055328 70.90588379 69.61897278 C70.91664744 67.63134394 70.91955316 65.64365872 70.91503906 63.65600586 C70.91406863 60.64013638 70.9556942 57.6268298 71 54.61132812 C71.15986923 39.20564144 71.15986923 39.20564144 63.42382812 26.32299805 C55.26727551 18.41684737 47.54488767 17.95820674 36.58984375 17.9296875 C35.23853755 17.92002579 33.88723438 17.90993184 32.53593445 17.89942932 C29.70918522 17.88152751 26.88271006 17.87590174 24.0559082 17.87768555 C20.46598011 17.87798932 16.87784685 17.83712279 13.28834248 17.78536892 C10.49725075 17.75169779 7.70657804 17.74593732 4.91530418 17.74751472 C2.95905165 17.74233758 1.00292995 17.71000526 -0.95304871 17.67686462 C-11.20527287 17.75456864 -20.57316571 20.17654145 -27.2109375 28.49609375 Z " fill="#000000" transform="translate(464.5859375,-0.43359375)"/>
<path d="M0 0 C11.41416851 -0.09061907 22.82809537 -0.16389907 34.24254322 -0.20724869 C39.54358676 -0.2280616 44.84436994 -0.25626361 50.14526367 -0.30175781 C55.26758547 -0.34544085 60.38965792 -0.36918438 65.51215172 -0.37950897 C67.45965178 -0.38686019 69.40713927 -0.4012148 71.35453224 -0.42292023 C87.19706094 -0.59236532 98.66062888 1.15747328 111 12 C120.75970121 22.37534099 124.31448461 33.45616524 124.30078125 47.4921875 C124.30506638 48.47816925 124.3093515 49.464151 124.31376648 50.48001099 C124.31948278 52.55583939 124.32003007 54.63168782 124.31567383 56.70751953 C124.31251628 59.85875116 124.33599919 63.00904053 124.36132812 66.16015625 C124.36360185 68.18749883 124.36430427 70.2148439 124.36328125 72.2421875 C124.372491 73.17167206 124.38170074 74.10115662 124.39118958 75.05880737 C124.30318174 87.69565163 119.61802088 98.78097074 111.078125 108.08203125 C102.09511926 116.37273768 91.92596398 120.50397825 79.80834961 120.34057617 C78.93896759 120.34101425 78.06958557 120.34145233 77.17385864 120.34190369 C74.33311594 120.33983284 71.49298187 120.31658323 68.65234375 120.29296875 C66.66980817 120.28736672 64.68726841 120.28309949 62.70472717 120.28010559 C57.51136615 120.26870463 52.31826072 120.23927866 47.125 120.20599365 C41.81579037 120.17518999 36.50653905 120.16157832 31.19726562 120.14648438 C20.79804728 120.11440407 10.39908498 120.06167528 0 120 C0 114.06 0 108.12 0 102 C3.79165649 101.98598145 3.79165649 101.98598145 7.65991211 101.97167969 C16.03394219 101.93783488 24.40772778 101.88224425 32.78156185 101.81609726 C37.85609625 101.77667445 42.93045847 101.74446048 48.00512695 101.72900391 C52.90719102 101.71380311 57.80878155 101.67929685 62.71063423 101.63169098 C64.57597285 101.61691244 66.44137908 101.60896102 68.30677605 101.60811615 C83.63919601 101.75708204 83.63919601 101.75708204 96.8125 94.625 C101.07202601 89.51356878 104.09243382 85.31935177 104.17700195 78.5637207 C104.18983719 77.66881424 104.20267242 76.77390778 104.21589661 75.85188293 C104.22328354 74.88626938 104.23067047 73.92065582 104.23828125 72.92578125 C104.25038887 71.4290815 104.25038887 71.4290815 104.26274109 69.90214539 C104.27657609 67.78805272 104.28730085 65.67393776 104.29516602 63.55981445 C104.3123416 60.3421737 104.35622923 57.12557049 104.40039062 53.90820312 C104.41052123 51.85157004 104.41903618 49.79492823 104.42578125 47.73828125 C104.45204338 46.30504265 104.45204338 46.30504265 104.47883606 44.84284973 C104.4549885 37.41961004 102.75996099 32.16140986 97.8515625 26.5390625 C97.11679687 25.90742188 96.38203125 25.27578125 95.625 24.625 C94.89539063 23.97789063 94.16578125 23.33078125 93.4140625 22.6640625 C88.13222825 19.02318646 82.76319364 18.69860468 76.51611328 18.68115234 C75.2712188 18.66608391 75.2712188 18.66608391 74.00117493 18.65071106 C71.27422744 18.61996709 68.54737775 18.60286846 65.8203125 18.5859375 C63.92315841 18.56721878 62.02601257 18.54764484 60.12887573 18.5272522 C55.14771402 18.47599942 50.16652534 18.43633702 45.1852417 18.39910889 C40.09738531 18.35902625 35.00964045 18.30795335 29.921875 18.2578125 C19.94798736 18.1611343 9.97405341 18.0777199 0 18 C0 12.06 0 6.12 0 0 Z " fill="#000000" transform="translate(271,0)"/>
<path d="M0 0 C12.49178131 -0.0905025 24.98334353 -0.16383241 37.47537899 -0.20724869 C43.27643489 -0.22809021 49.07725412 -0.25634544 54.87817383 -0.30175781 C60.48028948 -0.34533755 66.08217801 -0.36916293 71.68445015 -0.37950897 C73.81781144 -0.38687855 75.95116082 -0.40126954 78.08442497 -0.42292023 C81.08121111 -0.45211504 84.0770683 -0.45594924 87.07397461 -0.45410156 C87.94863876 -0.46848267 88.82330292 -0.48286377 89.72447205 -0.49768066 C99.21709589 -0.43468265 107.06477649 3.65002742 114 10 C121.89903398 18.61387868 123.90169199 27.26954121 123.48046875 38.7265625 C122.98474262 44.97243406 120.459247 49.85506912 117 55 C116.55527344 55.68578125 116.11054687 56.3715625 115.65234375 57.078125 C111.10331047 63.17886934 103.4408008 67.53956396 96 69 C93.9290653 69.09982296 91.85528586 69.14554862 89.78198242 69.15771484 C88.52355026 69.16797699 87.2651181 69.17823914 85.96855164 69.18881226 C85.29863379 69.19225018 84.62871593 69.1956881 83.93849754 69.19923019 C81.83165143 69.21107136 79.72500554 69.23053779 77.61824036 69.25234985 C71.62959519 69.31378642 65.64097194 69.36793687 59.65209961 69.40136719 C55.98388482 69.42239042 52.3160384 69.45775295 48.64803505 69.50212479 C47.25553046 69.51622318 45.86296073 69.52499323 44.47038841 69.52817917 C33.04372473 69.32534832 33.04372473 69.32534832 23.2578125 74.53515625 C19.28468587 79.89202698 18.81385952 83.15769789 18.68359375 89.7265625 C18.66281265 90.58937836 18.64203156 91.45219421 18.62062073 92.34115601 C18.55513966 95.10235493 18.49624702 97.86365038 18.4375 100.625 C18.3943134 102.49480172 18.35069907 104.36459362 18.30664062 106.234375 C18.19865326 110.8228191 18.09956938 115.41133453 18 120 C12.06 120 6.12 120 0 120 C-0.0994253 114.04098286 -0.17173064 108.08245645 -0.21972656 102.12280273 C-0.2397503 100.09862854 -0.26697767 98.07451153 -0.30175781 96.05053711 C-0.35068462 93.12859935 -0.3730615 90.2074312 -0.390625 87.28515625 C-0.41127014 86.39103531 -0.43191528 85.49691437 -0.45318604 84.57569885 C-0.45653702 75.03471917 3.4428621 66.89153739 10 60 C19.25316327 52.41206277 27.72441032 50.56158273 39.48442268 50.58930969 C41.57499692 50.59383626 43.66474609 50.57965532 45.75523376 50.56091309 C50.94267759 50.51816393 56.13009899 50.50690462 61.31768799 50.49468994 C65.71454496 50.48312021 70.11102124 50.45945183 74.50771904 50.41999817 C76.55675115 50.40651908 78.60525382 50.41058054 80.65431213 50.41540527 C90.95851933 50.39555896 90.95851933 50.39555896 99.7421875 45.5 C103.49133608 40.53561015 104.51015567 37.22389919 104 31 C102.30468424 25.52596838 100.19301284 22.69021143 95.07780266 19.8600235 C91.3470202 18.31581497 87.65699264 18.43034056 83.66821289 18.45410156 C82.76010864 18.44376389 81.85200439 18.43342621 80.91638184 18.42277527 C77.93495706 18.39343646 74.9542138 18.39184997 71.97265625 18.390625 C69.89756482 18.37563735 67.8224853 18.35890897 65.74742126 18.34051514 C60.30096883 18.2968953 54.85467732 18.27685431 49.40808105 18.26177979 C43.84422309 18.24218945 38.28053841 18.20022154 32.71679688 18.16015625 C21.8112221 18.08491196 10.90577283 18.03665487 0 18 C0 12.06 0 6.12 0 0 Z " fill="#000000" transform="translate(0,0)"/>
<path d="M0 0 C43.23 0 86.46 0 131 0 C131 5.94 131 11.88 131 18 C112.52 18 94.04 18 75 18 C75 51.66 75 85.32 75 120 C68.73 120 62.46 120 56 120 C56 86.34 56 52.68 56 18 C37.52 18 19.04 18 0 18 C0 12.06 0 6.12 0 0 Z " fill="#000000" transform="translate(573,0)"/>
<path d="M0 0 C5.94 0 11.88 0 18 0 C18 39.6 18 79.2 18 120 C12.06 120 6.12 120 0 120 C0 80.4 0 40.8 0 0 Z " fill="#000000" transform="translate(143,0)"/>
<path d="M0 0 C4.45029387 5.93372516 5.84999147 10.70423991 5 18 C3.00445599 24.1818483 -0.24341647 27.80469697 -5.8515625 31.08203125 C-10.73930818 33.17043168 -16.30875935 32.5529056 -21.25 30.9375 C-25.30523038 28.08040587 -28.76585617 24.46828766 -31 20 C-31.68911981 12.55524661 -31.63396217 7.0116266 -27 1 C-19.58571356 -6.62023884 -8.16160294 -6.52928235 0 0 Z " fill="#000000" transform="translate(300,44)"/>
</svg>
